<svg height="30" viewBox="0 0 158 30" width="158" xmlns="http://www.w3.org/2000/svg"><g fill="none" fill-rule="evenodd" transform="translate(0 -2)"><g fill="#08f" transform="translate(0 2.667)"><path d="m8 22.2222222c-4.418278 0-8-3.581722-8-8 0-4.18331 3.21089346-7.61667563 7.30260676-7.9700233.79729394-3.5776942 3.99056714-6.2521989 7.80850434-6.2521989 2.6857083 0 5.0623111 1.32343758 6.5132334 3.35373762 1.8488856-1.53910184 4.2263829-2.46484873 6.8200999-2.46484873 5.8910374 0 10.6666667 4.77562933 10.6666667 10.66666671 0 5.1289913-3.6200202 9.4124816-8.4444444 10.4348548v5.5651452c0 .8888888-.2962963 1.1851851-.8888889.8888888l-4.8888889-6.2222222zm19.5555556.8886031v.0002858h1.7777777v-1.8484653c0-.4619064.315948-.8616944.7610253-.9710355 4.1208503-.7734755 7.2389747-4.3906266 7.2389747-8.7360547 0-4.90919782-3.9796911-8.88888893-8.8888889-8.88888893-3.0222069 0-5.6921404 1.50826167-7.2981495 3.81313396-.6783586-2.70160819-3.1231603-4.70202285-6.0351838-4.70202285-3.4364384 0-6.22222221 2.78578378-6.22222221 6.22222222 0 .02104359.00010446.04206278.0003129.06305708-.29041342-.04155545-.58729662-.06305708-.88920179-.06305708-3.43643844 0-6.22222222 2.7857838-6.22222222 6.2222222 0 3.4364385 2.78578378 6.2222222 6.22222222 6.2222222h16.4205139c.2967799 0 .5782275.1318231.7682213.3598156l1.6225296 1.9470355c.1848797.2218557.4563562.3526494.7442908.3595298z"/><path d="m16 11.5555556c0-1.4727594-1.1939073-2.66666671-2.6666667-2.66666671-1.1851852 0-1.7777777-.2962963-1.7777777-.88888889 0-.33903989.1939748-.58109237.5819245-.72615743.3804885-.10604316.7815507-.16273146 1.1958532-.16273146 2.4545989 0 4.4444445 1.98984556 4.4444445 4.44444449 0 .4143025-.0566883.8153647-.1627315 1.1958532-.145065.3879497-.3871175.5819245-.7261574.5819245-.5925926 0-.8888889-.5925926-.8888889-1.7777777z"/><path d="m32.8888889 15.1111111c0-1.4727593-1.1939073-2.6666667-2.6666667-2.6666667-1.1851852 0-1.7777778-.2962963-1.7777778-.8888888 0-.3390399.1939749-.5810924.5819245-.7261575.3804886-.1060431.7815508-.1627314 1.1958533-.1627314 2.4545989 0 4.4444445 1.9898455 4.4444445 4.4444444 0 .4143025-.0566883.8153647-.1627315 1.1958533-.1450651.3879497-.3871175.5819245-.7261574.5819245-.5925926 0-.8888889-.5925926-.8888889-1.7777778z" transform="matrix(0 1 -1 0 45.333 -16.889)"/></g><path d="m49.8844444 9.32266667c-.5404471 0-.9813316-.16710944-1.3226666-.50133334-.3413351-.33422389-.512-.76444181-.512-1.29066666 0-.52622486.1706649-.95644278.512-1.29066667.341335-.33422389.7822195-.50133333 1.3226666-.50133333.5546695 0 .9991095.16355392 1.3333334.49066666.3342239.32711275.5013333.76088619.5013333 1.30133334 0 .54044714-.1671094.97422058-.5013333 1.30133333s-.7786639.49066667-1.3333334.49066667zm-1.1306666 12.01066663c-.241779 0-.3626667-.1208876-.3626667-.3626666v-10.24c0-.241779.1208877-.3626667.3626667-.3626667h2.2826666c.241779 0 .3626667.1208877.3626667.3626667v10.24c0 .241779-.1208877.3626666-.3626667.3626666zm11.6906666-3.8186666c.0142223-.0568892.0639996-.1244441.1493334-.2026667.0853337-.0782226.1777773-.1102223.2773333-.096l2.24.3413333c.1137784.0284446.1955553.0782219.2453333.1493334.0497781.0711114.0675557.1564439.0533334.256-.0284446.2275567-.0639998.3911106-.1066667.4906666-.2560013.7822262-.7004413 1.4293308-1.3333333 1.9413334-.6328921.5120025-1.3902178.8462214-2.272 1.0026666-.0568892.0142223-.0888889.039111-.096.0746667-.0071112.0355557.0106664.0675554.0533333.096.6115586.5973363.9173333 1.2231078.9173333 1.8773333 0 .1564453-.0213331.3199992-.064.4906667-.1422229.483558-.3946648.8284434-.7573333 1.0346667-.3626685.2062232-.7857753.3093333-1.2693333.3093333-.3982242 0-.8035535-.0639994-1.216-.192-.1991121-.0568892-.2844446-.19911-.256-.4266667l.1066666-.8533333c.0426669-.2275567.1919988-.3128892.448-.256.142223.0284446.2417775.0426667.2986667.0426667.3697796 0 .604444-.163554.704-.4906667.0142223-.0426669.0213333-.0995552.0213333-.1706667 0-.4266688-.355552-.9244416-1.0666666-1.4933333l-.1493334-.064c-.8391153-.1848898-1.5644413-.5439973-2.176-1.0773333-.6115586-.533336-1.0595541-1.1982183-1.344-1.9946667-.2417789-.7111147-.3626666-1.5502174-.3626666-2.5173333 0-.9528937.1208877-1.7777743.3626666-2.4746667.3413351-.9671159.9315514-1.7279972 1.7706667-2.2826667.8391153-.5546694 1.8275499-.832 2.9653333-.832 1.1377835 0 2.1368846.2844416 2.9973334.8533334.8604487.5688917 1.4328874 1.2871067 1.7173333 2.1546666.0853338.1991121.1422221.4195544.1706667.6613334v.0426666c0 .1848898-.1066656.2986665-.32.3413334l-2.24.3413333-.1066667.0213333c-.1706675 0-.2702221-.0853324-.2986667-.256l-.064-.2986666c-.099556-.3697797-.3199982-.6755544-.6613333-.9173334-.341335-.241779-.7466643-.3626666-1.216-.3626666-.4551134 0-.8391095.1137766-1.152.3413333-.3128904.2275567-.5333327.5404425-.6613333.9386667-.1564452.4266688-.2346667 1.009774-.2346667 1.7493333s.0711104 1.3226645.2133333 1.7493333c.1280007.4266688.3519984.7608877.672 1.0026667s.7075533.3626667 1.1626667.3626667c.4408911 0 .8284428-.1173322 1.1626667-.352.3342239-.2346679.5653327-.5511092.6933333-.9493334zm10.0693334 1.4506666c.9386713-.0426668 1.6568864-.3697747 2.1546666-.9813333.0853338-.0995561.1777773-.1493333.2773334-.1493333.0853337 0 .1635552.0355552.2346666.1066666l1.216 1.1733334c.0853338.0853337.128.1706662.128.256 0 .099556-.0284441.1848885-.0853333.256-.4693357.583114-1.0702185 1.0417761-1.8026667 1.376-.7324481.3342239-1.5324401.5013333-2.4.5013333-1.3084509 0-2.3928845-.3342189-3.2533333-1.0026667-.8604487-.6684478-1.4399985-1.5857719-1.7386667-2.752-.1706675-.6257809-.256-1.2871076-.256-1.984 0-.824893.0782215-1.5217749.2346667-2.0906666.2844459-1.0524497.8568846-1.8986635 1.7173333-2.5386667.8604488-.6400032 1.880883-.96 3.0613334-.96 1.3937847 0 2.4995514.4124403 3.3173333 1.2373333s1.3475544 1.9839926 1.5893333 3.4773334c.0568892.4693356.0995555.9884416.128 1.5573333 0 .241779-.1208876.3626667-.3626666.3626667h-6.5493334c-.0853337 0-.128.0426662-.128.128.0426669.2986681.0924442.5191104.1493334.6613333.1422229.4408911.423109.7786655.8426666 1.0133333.4195577.2346679.9279971.352 1.5253334.352zm-.5546667-6.1866666c-.4551134 0-.835554.1102211-1.1413333.3306666-.3057793.2204456-.515555.5297758-.6293334.928-.0711114.2702236-.1137777.4479996-.128.5333334-.0142222.0853337.021333.128.1066667.128h3.6266667c.0711114 0 .1066666-.0284442.1066666-.0853334 0-.1564452-.0284441-.3199991-.0853333-.4906666-.1280006-.4124465-.3484429-.7395544-.6613333-.9813334-.3128905-.241779-.7111087-.3626666-1.1946667-.3626666zm12.3946667-2.56c.4551134 0 .8319985.0853324 1.1306666.256.1706676.0853337.2346669.2346656.192.448l-.4053333 2.24c-.0142223.1280006-.053333.206222-.1173333.2346666s-.1671104.0284446-.3093334 0c-.2275566-.0568891-.4337768-.0853333-.6186666-.0853333-.0995561 0-.26311.0142221-.4906667.0426667-.5120025.0426668-.945776.2311094-1.3013333.5653333-.3555574.3342239-.5333334.7786639-.5333334 1.3333333v5.7173334c0 .241779-.1208876.3626666-.3626666.3626666h-2.2826667c-.241779 0-.3626667-.1208876-.3626667-.3626666v-10.24c0-.241779.1208877-.3626667.3626667-.3626667h2.2826667c.241779 0 .3626666.1208877.3626666.3626667v.6613333c0 .0568892.0142221.0924444.0426667.1066667s.0639998.0000002.1066667-.0426667c.5688917-.824893 1.336884-1.2373333 2.304-1.2373333zm4.3733333-.89600003c-.5404471 0-.9813316-.16710944-1.3226667-.50133334-.341335-.33422389-.512-.76444181-.512-1.29066666 0-.52622486.170665-.95644278.512-1.29066667.3413351-.33422389.7822196-.50133333 1.3226667-.50133333.5546695 0 .9991095.16355392 1.3333333.49066666.3342239.32711275.5013334.76088619.5013334 1.30133334 0 .54044714-.1671095.97422058-.5013334 1.30133333-.3342238.32711275-.7786638.49066667-1.3333333.49066667zm-1.1306667 12.01066663c-.2417789 0-.3626666-.1208876-.3626666-.3626666v-10.24c0-.241779.1208877-.3626667.3626666-.3626667h2.2826667c.241779 0 .3626667.1208877.3626667.3626667v10.24c0 .241779-.1208877.3626666-.3626667.3626666zm5.376 0c-.2417789 0-.3626666-.1208876-.3626666-.3626666v-14.20800003c0-.24177899.1208877-.36266667.3626666-.36266667h2.2826667c.241779 0 .3626667.12088768.3626667.36266667v7.04000003c0 .0568891.0177776.0888888.0533333.096.0355557.0071111.0675554-.0106665.096-.0533334l2.8373333-3.264c.142223-.1422229.2915548-.2133333.448-.2133333h2.5813334c.099556 0 .1777775.0177776.2346666.0533333.0568892.0355558.0853334.0888886.0853334.16 0 .0853338-.0284442.1635552-.0853334.2346667l-2.624 3.2853333c-.0426668.0426669-.0497779.0995552-.0213333.1706667l3.1359999 6.6346667.042667.1706666c0 .1706676-.106666.256-.32.256h-2.4106669c-.1991121 0-.3413329-.0924435-.4266667-.2773333l-2.0693333-4.8853333c-.0426669-.0853338-.0995552-.0924448-.1706667-.0213334l-1.3226666 1.6853334c-.0426669.0568891-.064.1066664-.064.1493333v2.9866667c0 .241779-.1208877.3626666-.3626667.3626666zm19.9039996-8.0426666c.170668.583114.256 1.464883.256 2.6453333 0 1.1662281-.099554 2.0693301-.298666 2.7093333-.256002.8817822-.721775 1.5786641-1.397334 2.0906667-.675558.5120026-1.511106.768-2.506666.768-.568892 0-1.084442-.1137766-1.546667-.3413333-.462224-.2275567-.849776-.5475535-1.162667-.96-.028444-.0284446-.056888-.0391112-.085333-.032-.028444.0071111-.042667.0319998-.042667.0746666v.8106667c0 .1848898-.092443.2773333-.277333.2773333h-.96c-.18489 0-.277333-.0924435-.277333-.2773333v-14.37866667c0-.18488981.092443-.27733333.277333-.27733333h.96c.18489 0 .277333.09244352.277333.27733333v4.92799997c0 .0426669.014223.0711111.042667.0853334.028445.0142223.056889.0000002.085333-.0426667.312891-.4124465.703998-.7288878 1.173334-.9493333.469335-.2204456.98133-.3306667 1.536-.3306667 1.009783 0 1.855996.259553 2.538666.7786667.682671.5191137 1.151999 1.2337732 1.408 2.144zm-1.642666 5.2266666c.142223-.2986681.241777-.6364425.298666-1.0133333.05689-.3768908.085334-.8995522.085334-1.568 0-.6968924-.039111-1.2408869-.117334-1.632-.078222-.3911131-.202665-.7431095-.373333-1.056-.18489-.4693357-.483553-.8462208-.896-1.1306667-.412446-.2844458-.903108-.4266666-1.472-.4266666-.540447 0-1.00622.1457763-1.397333.4373333s-.671999.6791087-.842667 1.1626667c-.142223.2986681-.241777.6435536-.298667 1.0346666-.056889.3911131-.085333.9279966-.085333 1.6106667s.028444 1.2159981.085333 1.6c.05689.3840019.149333.7182208.277334 1.0026667.18489.4977802.469331.8959985.853333 1.1946666.384002.2986682.860442.448 1.429333.448.597337 0 1.112887-.1493318 1.546667-.448.43378-.2986681.735999-.7039974.906667-1.216zm11.434666-7.7013333c0-.1848898.092444-.2773333.277334-.2773333h.96c.18489 0 .277333.0924435.277333.2773333v10.24c0 .1848898-.092443.2773333-.277333.2773333h-.96c-.18489 0-.277334-.0924435-.277334-.2773333v-.8106667c0-.0426668-.014222-.071111-.042666-.0853333-.028445-.0142223-.056889-.0000002-.085334.0426667-.611558.8533376-1.550215 1.28-2.816 1.28-.68267 0-1.311997-.1386653-1.888-.416-.576002-.2773348-1.031109-.6791085-1.365333-1.2053334-.334224-.5262248-.501333-1.1591074-.501333-1.8986666v-7.1466667c0-.1848898.092443-.2773333.277333-.2773333h.96c.18489 0 .277333.0924435.277333.2773333v6.6986667c0 .8106707.227554 1.4542198.682667 1.9306666.455113.4764469 1.073774.7146667 1.856.7146667.810671 0 1.45422-.2417754 1.930667-.7253333.476447-.483558.714666-1.1235516.714666-1.92zm5.184 10.5173333c-.184889 0-.277333-.0924435-.277333-.2773333v-14.37866667c0-.18488981.092444-.27733333.277333-.27733333h.96c.18489 0 .277334.09244352.277334.27733333v14.37866667c0 .1848898-.092444.2773333-.277334.2773333zm11.2-10.5173333c0-.1848898.092444-.2773333.277334-.2773333h.96c.18489 0 .277333.0924435.277333.2773333v10.24c0 .1848898-.092443.2773333-.277333.2773333h-.96c-.18489 0-.277334-.0924435-.277334-.2773333v-.8106667c0-.0426668-.014222-.071111-.042666-.0853333-.028445-.0142223-.056889-.0000002-.085334.0426667-.611558.8533376-1.550215 1.28-2.816 1.28-.68267 0-1.311997-.1386653-1.888-.416-.576002-.2773348-1.031109-.6791085-1.365333-1.2053334-.334224-.5262248-.501333-1.1591074-.501333-1.8986666v-7.1466667c0-.1848898.092443-.2773333.277333-.2773333h.96c.18489 0 .277333.0924435.277333.2773333v6.6986667c0 .8106707.227554 1.4542198.682667 1.9306666.455113.4764469 1.073774.7146667 1.856.7146667.810671 0 1.45422-.2417754 1.930667-.7253333.476447-.483558.714666-1.1235516.714666-1.92zm9.749334.704c0 .1848898-.092444.2773333-.277334.2773333h-2.325333c-.071111 0-.106667.0355552-.106667.1066667v6.2293333c0 .6826701.152888 1.1626653.458667 1.44.305779.2773348.785775.416 1.44.416h.469333c.18489 0 .277334.0924436.277334.2773334v.7466666c0 .1848898-.092444.2844444-.277334.2986667h-.725333c-1.024005 0-1.799108-.1919981-2.325333-.576s-.789334-1.0951059-.789334-2.1333333v-6.6986667c0-.0711115-.035555-.1066667-.106666-.1066667h-1.216c-.18489 0-.277334-.0924435-.277334-.2773333v-.704c0-.1848898.092444-.2773333.277334-.2773333h1.216c.071111 0 .106666-.0355552.106666-.1066667v-2.38933333c0-.18488982.092444-.27733334.277334-.27733334h.917333c.18489 0 .277333.09244352.277333.27733334v2.38933333c0 .0711115.035556.1066667.106667.1066667h2.325333c.18489 0 .277334.0924435.277334.2773333zm9.450666-.704c0-.1848898.092444-.2773333.277334-.2773333h.96c.18489 0 .277333.0924435.277333.2773333v10.24c0 .1848898-.092443.2773333-.277333.2773333h-.96c-.18489 0-.277334-.0924435-.277334-.2773333v-.8106667c0-.0426668-.014222-.071111-.042666-.0853333-.028445-.0142223-.056889-.0000002-.085334.0426667-.611558.8533376-1.550215 1.28-2.816 1.28-.68267 0-1.311997-.1386653-1.888-.416-.576002-.2773348-1.031109-.6791085-1.365333-1.2053334-.334224-.5262248-.501333-1.1591074-.501333-1.8986666v-7.1466667c0-.1848898.092443-.2773333.277333-.2773333h.96c.18489 0 .277333.0924435.277333.2773333v6.6986667c0 .8106707.227554 1.4542198.682667 1.9306666.455113.4764469 1.073774.7146667 1.856.7146667.810671 0 1.45422-.2417754 1.930667-.7253333.476447-.483558.714666-1.1235516.714666-1.92z" fill="#44505d"/></g></svg>